<?xml version="1.0" standalone="no"?><!DOCTYPE svg PUBLIC "-//W3C//DTD SVG 1.1//EN" "http://www.w3.org/Graphics/SVG/1.1/DTD/svg11.dtd"><svg class="icon" width="200px" height="200.00px" viewBox="0 0 1024 1024" version="1.1" xmlns="http://www.w3.org/2000/svg"><path d="M2.56 512c0 281.35424 228.08576 509.44 509.44 509.44s509.44-228.08576 509.44-509.44S793.35424 2.56 512 2.56 2.56 230.64576 2.56 512z" fill="#55A7F7" /><path d="M795.31008 832.896H282.85952c-26.2912 0-47.67232-21.38112-47.67232-47.67232V284.68736c0-39.42912 32.0768-71.50592 71.50592-71.50592h297.9328c39.42912 0 71.50592 32.0768 71.50592 71.50592V451.5328h119.17312c26.2912 0 47.67232 21.38624 47.67232 47.67232v286.02368c0.00512 26.2912-21.376 47.6672-47.6672 47.6672z m-119.17312-47.6672h119.17312V499.20512h-119.17312v286.02368z" fill="#FFFFFF" /><path d="M574.83264 445.57824H485.4528V356.1984H425.86624v89.37984H336.4864v59.58656h89.37984v89.37984h59.58656V505.1648h89.37984V445.57824z" fill="#FF0000" /></svg>